
<svg xmlns="http://www.w3.org/2000/svg" style="display:none">
  <defs>
    
  </defs>

  
  <symbol id="i-calendar-check" viewBox="0 0 24 24">
    <rect x="3" y="5" width="18" height="16" rx="2.5"></rect>
    <path d="M3 10h18"></path>
    <path d="M8 3v4M16 3v4"></path>
    <path d="M9 15l2 2 4-4"></path>
  </symbol>

  
  <symbol id="i-phone" viewBox="0 0 24 24">
    <path d="M5 4c0-.55.45-1 1-1h2.27c.43 0 .81.27.95.67l1.5 4.5c.13.4.02.83-.29 1.13l-1.6 1.6a13 13 0 0 0 5.27 5.27l1.6-1.6c.3-.31.74-.42 1.14-.29l4.5 1.5c.4.14.66.52.66.95V19c0 .55-.45 1-1 1h-2C9.85 20 4 14.15 4 7V5z" transform="translate(0 -1)"></path>
  </symbol>

  
  <symbol id="i-heart-pulse" viewBox="0 0 24 24">
    <path d="M12 21s-7-4.35-9.5-9A5 5 0 0 1 12 6a5 5 0 0 1 9.5 6c-2.5 4.65-9.5 9-9.5 9z"></path>
    <path d="M7 12h2l1.5-3 3 6L15 12h2"></path>
  </symbol>

  
  <symbol id="i-tooth" viewBox="0 0 24 24">
    <path d="M12 3c2.5 0 4 1 5.5 1S20 4.5 20 7c0 3-1 4-1.5 7s-.5 6-2 6-2-3-2.5-5-1-2-2-2-1.5 0-2 2-1 5-2.5 5-1.5-3-2-6S4 10 4 7c0-2.5 1-3 2.5-3S9.5 3 12 3z"></path>
  </symbol>

  
  <symbol id="i-play-circle" viewBox="0 0 24 24">
    <circle cx="12" cy="12" r="9"></circle>
    <path d="M10 8.5v7l6-3.5z" fill="currentColor"></path>
  </symbol>

  
  <symbol id="i-user" viewBox="0 0 24 24">
    <circle cx="12" cy="8" r="4"></circle>
    <path d="M4 21c0-4 3.5-7 8-7s8 3 8 7"></path>
  </symbol>

  
  <symbol id="i-clipboard" viewBox="0 0 24 24">
    <rect x="5" y="4" width="14" height="17" rx="2"></rect>
    <rect x="9" y="2" width="6" height="4" rx="1"></rect>
    <path d="M9 11h6M9 15h4"></path>
  </symbol>

  
  <symbol id="i-dollar" viewBox="0 0 24 24">
    <circle cx="12" cy="12" r="9"></circle>
    <path d="M15 9.5c-.5-1-1.5-1.5-3-1.5-1.66 0-3 1-3 2.25S10.34 12.5 12 12.5s3 .75 3 2.25S13.66 17 12 17c-1.5 0-2.5-.5-3-1.5"></path>
    <path d="M12 6v2M12 17v2"></path>
  </symbol>

  
  <symbol id="i-smile" viewBox="0 0 24 24">
    <circle cx="12" cy="12" r="9"></circle>
    <circle cx="9" cy="10" r=".5" fill="currentColor"></circle>
    <circle cx="15" cy="10" r=".5" fill="currentColor"></circle>
    <path d="M8 14c1 1.5 2.5 2.5 4 2.5s3-1 4-2.5"></path>
  </symbol>

  
  <symbol id="i-clock" viewBox="0 0 24 24">
    <circle cx="12" cy="12" r="9"></circle>
    <path d="M12 7v5l3 2"></path>
  </symbol>

  
  <symbol id="i-chart-up" viewBox="0 0 24 24">
    <path d="M4 20h16"></path>
    <path d="M4 16l5-5 4 3 6-7"></path>
    <path d="M14 7h5v5"></path>
  </symbol>

  
  <symbol id="i-megaphone" viewBox="0 0 24 24">
    <path d="M3 12v-1a3 3 0 0 1 3-3h2l9-4v15l-9-4H6a3 3 0 0 1-3-3z"></path>
    <path d="M8 8v8"></path>
    <path d="M7 16l1 4h2l-1-4"></path>
  </symbol>

  
  <symbol id="i-search" viewBox="0 0 24 24">
    <circle cx="11" cy="11" r="7"></circle>
    <path d="M16 16l5 5"></path>
  </symbol>

  
  <symbol id="i-chat" viewBox="0 0 24 24">
    <path d="M4 5h16a1 1 0 0 1 1 1v10a1 1 0 0 1-1 1H9l-4 4v-4H4a1 1 0 0 1-1-1V6a1 1 0 0 1 1-1z"></path>
  </symbol>

  
  <symbol id="i-check" viewBox="0 0 24 24">
    <path d="M5 12l4 4 10-10"></path>
  </symbol>

  
  <symbol id="i-check-circle" viewBox="0 0 24 24">
    <circle cx="12" cy="12" r="9"></circle>
    <path d="M8 12l3 3 5-5"></path>
  </symbol>

  
  <symbol id="i-shield-check" viewBox="0 0 24 24">
    <path d="M12 3l8 3v6c0 5-3.5 8-8 9-4.5-1-8-4-8-9V6z"></path>
    <path d="M9 12l2 2 4-4"></path>
  </symbol>

  
  <symbol id="i-bell" viewBox="0 0 24 24">
    <path d="M6 16V11a6 6 0 0 1 12 0v5l1.5 2h-15z"></path>
    <path d="M10 20a2 2 0 0 0 4 0"></path>
  </symbol>

  
  <symbol id="i-arrow-right" viewBox="0 0 24 24">
    <path d="M5 12h14M13 6l6 6-6 6"></path>
  </symbol>

  
  <symbol id="i-chevron-right" viewBox="0 0 24 24">
    <path d="M9 6l6 6-6 6"></path>
  </symbol>

  
  <symbol id="i-menu" viewBox="0 0 24 24">
    <path d="M4 7h16M4 12h16M4 17h16"></path>
  </symbol>

  
  <symbol id="i-x" viewBox="0 0 24 24">
    <path d="M6 6l12 12M18 6L6 18"></path>
  </symbol>

  
  <symbol id="i-star" viewBox="0 0 24 24">
    <path d="M12 3l2.7 5.5 6.1.9-4.4 4.3 1 6L12 17l-5.4 2.7 1-6L3.2 9.4l6.1-.9z"></path>
  </symbol>
</svg>