<svg xmlns="http://www.w3.org/2000/svg" width="101" height="155.917" viewBox="0 0 101 155.917">
  <g transform="translate(0 0) scale(1 1)">
    <path d="M98.383,38.778l-18.4,39.186L75.133,67.619c-9.794-20.856-39.462-20.856-49.267,0L21.014,77.964,2.618,38.778A27.206,27.206,0,0,1,27.246,0h46.52A27.2,27.2,0,0,1,98.383,38.778Z" fill="#29bbf6"></path>
    <path d="M73.766,155.917H27.245a27.2,27.2,0,0,1-24.628-38.767l18.4-39.186,4.852,10.345c9.8,20.856,39.473,20.856,49.267,0l4.853-10.345,18.4,39.186a27.2,27.2,0,0,1-24.617,38.767Z" fill="#7befdf"></path>
  </g>
</svg>